M48
;Layer_Color=9474304
;FILE_FORMAT=2:5
INCH,TZ
;TYPE=PLATED
T1F00S00C0.01575
T2F00S00C0.02362
T3F00S00C0.03150
T4F00S00C0.03346
T5F00S00C0.03740
T6F00S00C0.03937
T7F00S00C0.04016
T8F00S00C0.05906
T10F00S00C0.12598
;TYPE=NON_PLATED
T11F00S00C0.07087
T13F00S00C0.18504
%
T01
X1090888Y466322
X1096794
X1102699
Y472228
X1096794
Y478133
X1102699
Y501755
Y507661
Y513566
X1096794
Y507661
Y501755
X1096794Y541125
X1102699
Y547031
Y552936
X1096794
Y547031
Y576558
Y582464
Y588369
X1102699
Y582464
Y576558
X1090888
Y582464
Y588369
Y552936
Y547031
Y541125
X1090888Y513566
Y507661
Y501755
Y478133
Y472228
X1021991Y608054
X969159Y609203
X935376Y584432
X893250Y557267
X807030Y617258
X793644Y497818
X787739
X781833
Y491913
Y486007
X787739
Y491913
X793644
Y486007
X780570Y618520
X773820Y618684
X896006Y643487
X840888Y698606
X832659Y867897
X829433Y875771
X820848
X866227Y879984
X775928Y885334
X773959Y991913
X779865
X785770
X791676
X797581
X803487
X809392
X815298
X816566Y968291
X817097Y960787
X859263Y979984
X859058Y989983
X885376Y1088369
X895376
X905376
X915496Y1078104
X925376Y1066122
X935396Y1064747
X945376
X955376
X965376
X975376
X985376
T02
X998369Y484944
Y489944
Y494944
Y559747
Y564747
Y569747
T03
X908802Y592306
X922581
Y639550
X908802
T04
X978683Y470259
X1014117Y470259
X1029865
X1045613
Y509629
X1029865
X1014117
Y545062
X1029865
X1045613
Y584432
X1029865
X1014117
X978683
Y619865
X1029865
X1045613
X978683Y545062
X978683Y509629
X978683Y659235
X1029865
X1045613
T05
X950062Y489944
X960061
Y564747
X950062
Y639550
X960061
T06
X1065298Y479944
Y489944
Y499944
Y554747
Y564747
Y574747
Y629550
Y639550
Y649550
X877266Y879984
Y889983
Y899984
Y909984
Y919983
Y929984
X757266
Y919983
Y909984
Y899984
Y889983
Y879984
Y939983
Y949984
Y959984
Y969983
Y979984
Y989983
Y999984
Y1009984
Y1019983
Y1029984
X877266
Y1019983
Y1009984
Y999984
Y989983
Y979984
Y969983
Y959984
Y949984
Y939983
X885376Y1072621
X895376
X905376
X915376
X925376
X935376
X945376
X955376
X965376
X975376
X985376
X1008487
X1018487
X1028487
X1038487
X1048487
X1058487
X1068487
X1078487
X1088487
X1098487
T07
X807030Y443487
X874747
Y599393
X807030
T08
X1124353Y480102
Y499787
X1124353Y554905
Y574590
X762148Y582464
Y602149
Y547031
Y527346
Y491913
Y472228
X1124353Y629708
Y649393
T10
X766085Y442700
X1120416
X766085Y1072621
X1120416
T11
X762719Y632503
X871813
X762581Y1048172
X871813
T13
X920514Y768094
Y961007
M30
