G04*
G04 #@! TF.GenerationSoftware,Altium Limited,Altium Designer,21.8.1 (53)*
G04*
G04 Layer_Color=255*
%FSLAX25Y25*%
%MOIN*%
G70*
G04*
G04 #@! TF.SameCoordinates,A1411363-43AB-4F6E-8D2E-BD86F2085DDB*
G04*
G04*
G04 #@! TF.FilePolarity,Positive*
G04*
G01*
G75*
%ADD10C,0.00787*%
%ADD24C,0.07087*%
%ADD31R,0.07677X0.07677*%
%ADD32C,0.07677*%
G04:AMPARAMS|DCode=36|XSize=70.87mil|YSize=70.87mil|CornerRadius=17.72mil|HoleSize=0mil|Usage=FLASHONLY|Rotation=180.000|XOffset=0mil|YOffset=0mil|HoleType=Round|Shape=RoundedRectangle|*
%AMROUNDEDRECTD36*
21,1,0.07087,0.03543,0,0,180.0*
21,1,0.03543,0.07087,0,0,180.0*
1,1,0.03543,-0.01772,0.01772*
1,1,0.03543,0.01772,0.01772*
1,1,0.03543,0.01772,-0.01772*
1,1,0.03543,-0.01772,-0.01772*
%
%ADD36ROUNDEDRECTD36*%
%ADD37O,0.07953X0.05984*%
%ADD38R,0.07953X0.05984*%
%ADD39O,0.08268X0.06693*%
G04:AMPARAMS|DCode=40|XSize=88.58mil|YSize=88.58mil|CornerRadius=22.15mil|HoleSize=0mil|Usage=FLASHONLY|Rotation=90.000|XOffset=0mil|YOffset=0mil|HoleType=Round|Shape=RoundedRectangle|*
%AMROUNDEDRECTD40*
21,1,0.08858,0.04429,0,0,90.0*
21,1,0.04429,0.08858,0,0,90.0*
1,1,0.04429,0.02215,0.02215*
1,1,0.04429,0.02215,-0.02215*
1,1,0.04429,-0.02215,-0.02215*
1,1,0.04429,-0.02215,0.02215*
%
%ADD40ROUNDEDRECTD40*%
%ADD41C,0.08858*%
%ADD42R,0.06693X0.06693*%
%ADD43C,0.06693*%
%ADD44C,0.06102*%
%ADD45R,0.06102X0.06102*%
%ADD46O,0.07874X0.03937*%
%ADD47O,0.07874X0.03937*%
%ADD48O,0.17717X0.10236*%
%ADD49C,0.20472*%
%ADD50R,0.11811X0.11811*%
D10*
X1140101Y1092306D02*
X1140101Y423015D01*
X746400Y1080495D02*
Y1092306D01*
X1140101D01*
X746400Y423015D02*
X1140101D01*
X746400D02*
X746400Y1080495D01*
D24*
X922581Y639550D02*
D03*
X908802Y592306D02*
D03*
D31*
X950062Y639550D02*
D03*
Y564747D02*
D03*
Y489944D02*
D03*
D32*
X960061Y639550D02*
D03*
Y564747D02*
D03*
Y489944D02*
D03*
D36*
X908802Y639550D02*
D03*
X922581Y592306D02*
D03*
D37*
X1068487Y1072621D02*
D03*
X1028487D02*
D03*
X1018487D02*
D03*
X1038487D02*
D03*
X1048487D02*
D03*
X1058487D02*
D03*
X1078487D02*
D03*
X1088487D02*
D03*
X1098487D02*
D03*
X985376D02*
D03*
X975376D02*
D03*
X945376D02*
D03*
X905376D02*
D03*
X895376D02*
D03*
X915376D02*
D03*
X925376D02*
D03*
X935376D02*
D03*
X955376D02*
D03*
X965376D02*
D03*
D38*
X1008487D02*
D03*
X885376D02*
D03*
D39*
X877266Y959984D02*
D03*
Y949984D02*
D03*
Y939983D02*
D03*
Y899984D02*
D03*
Y909984D02*
D03*
Y919983D02*
D03*
Y929984D02*
D03*
Y969983D02*
D03*
X757266Y889983D02*
D03*
Y879984D02*
D03*
Y1029984D02*
D03*
Y1019983D02*
D03*
Y1009984D02*
D03*
Y999984D02*
D03*
Y989983D02*
D03*
Y979984D02*
D03*
Y969983D02*
D03*
Y959984D02*
D03*
Y949984D02*
D03*
Y939983D02*
D03*
Y929984D02*
D03*
Y919983D02*
D03*
Y909984D02*
D03*
Y899984D02*
D03*
X877266Y889983D02*
D03*
Y879984D02*
D03*
Y1029984D02*
D03*
Y1019983D02*
D03*
Y1009984D02*
D03*
Y999984D02*
D03*
Y989983D02*
D03*
Y979984D02*
D03*
D40*
X1124353Y554905D02*
D03*
X762148Y602149D02*
D03*
Y547031D02*
D03*
Y491913D02*
D03*
X1124353Y480102D02*
D03*
Y629708D02*
D03*
D41*
X1124353Y574590D02*
D03*
X762148Y582464D02*
D03*
Y527346D02*
D03*
Y472228D02*
D03*
X1124353Y499787D02*
D03*
Y649393D02*
D03*
D42*
X1065298Y499944D02*
D03*
Y574747D02*
D03*
Y649550D02*
D03*
D43*
Y489944D02*
D03*
Y479944D02*
D03*
Y564747D02*
D03*
Y554747D02*
D03*
Y639550D02*
D03*
Y629550D02*
D03*
D44*
X978683Y470259D02*
D03*
X1014117Y509629D02*
D03*
X978683Y659235D02*
D03*
Y545062D02*
D03*
X1014117Y584432D02*
D03*
X1029865Y659235D02*
D03*
Y584432D02*
D03*
X1045613Y659235D02*
D03*
Y584432D02*
D03*
X1029865Y509629D02*
D03*
X1045613D02*
D03*
D45*
X978683Y509629D02*
D03*
X1014117Y470259D02*
D03*
X978683Y619865D02*
D03*
Y584432D02*
D03*
X1014117Y545062D02*
D03*
X1029865Y619865D02*
D03*
Y545062D02*
D03*
X1045613Y619865D02*
D03*
Y545062D02*
D03*
X1029865Y470259D02*
D03*
X1045613D02*
D03*
D46*
X998369Y559747D02*
D03*
Y569747D02*
D03*
Y494944D02*
D03*
Y484944D02*
D03*
D47*
Y564747D02*
D03*
Y489944D02*
D03*
D48*
X1089707D02*
D03*
Y564747D02*
D03*
D49*
X1120416Y442700D02*
D03*
Y1072621D02*
D03*
X766085D02*
D03*
Y442700D02*
D03*
D50*
X874747Y599393D02*
D03*
X807030D02*
D03*
X874747Y443487D02*
D03*
X807030D02*
D03*
M02*
